<!-- Placeholder for alerts page screenshot -->
<svg width="800" height="600" xmlns="http://www.w3.org/2000/svg">
  <rect width="800" height="600" fill="#f8f9fa" stroke="#dee2e6" stroke-width="2"/>
  <text x="400" y="50" text-anchor="middle" font-family="Arial, sans-serif" font-size="24" fill="#495057">
    Historique des Alertes
  </text>
  
  <!-- Header Section -->
  <rect x="50" y="80" width="700" height="60" fill="#dc3545" rx="8"/>
  <text x="400" y="115" text-anchor="middle" font-family="Arial, sans-serif" font-size="18" fill="white">
    Système d'Alertes - Maintenance Prédictive
  </text>
  
  <!-- Alert Cards -->
  <rect x="50" y="160" width="700" height="60" fill="#dc3545" rx="8"/>
  <circle cx="80" cy="190" r="10" fill="#ffffff"/>
  <text x="110" y="180" font-family="Arial, sans-serif" font-size="16" fill="white">CRITIQUE</text>
  <text x="110" y="200" font-family="Arial, sans-serif" font-size="14" fill="white">Machine ID-001: Température évaporateur > 5°C</text>
  <text x="650" y="195" font-family="Arial, sans-serif" font-size="12" fill="white">14:25:30</text>
  
  <rect x="50" y="230" width="700" height="60" fill="#ffc107" rx="8"/>
  <circle cx="80" cy="260" r="10" fill="#ffffff"/>
  <text x="110" y="250" font-family="Arial, sans-serif" font-size="16" fill="white">MOYENNE</text>
  <text x="110" y="270" font-family="Arial, sans-serif" font-size="14" fill="white">Machine ID-003: Pression haute élevée (14.2 bar)</text>
  <text x="650" y="265" font-family="Arial, sans-serif" font-size="12" fill="white">14:20:15</text>
  
  <rect x="50" y="300" width="700" height="60" fill="#ffc107" rx="8"/>
  <circle cx="80" cy="330" r="10" fill="#ffffff"/>
  <text x="110" y="320" font-family="Arial, sans-serif" font-size="16" fill="white">MOYENNE</text>
  <text x="110" y="340" font-family="Arial, sans-serif" font-size="14" fill="white">Machine ID-002: Surchauffe excessive (16.8°C)</text>
  <text x="650" y="335" font-family="Arial, sans-serif" font-size="12" fill="white">14:15:45</text>
  
  <rect x="50" y="370" width="700" height="60" fill="#28a745" rx="8"/>
  <circle cx="80" cy="400" r="10" fill="#ffffff"/>
  <text x="110" y="390" font-family="Arial, sans-serif" font-size="16" fill="white">RÉSOLUE</text>
  <text x="110" y="410" font-family="Arial, sans-serif" font-size="14" fill="white">Machine ID-005: Courant compresseur normalisé</text>
  <text x="650" y="405" font-family="Arial, sans-serif" font-size="12" fill="white">14:10:20</text>
  
  <rect x="50" y="440" width="700" height="60" fill="#6c757d" rx="8"/>
  <circle cx="80" cy="470" r="10" fill="#ffffff"/>
  <text x="110" y="460" font-family="Arial, sans-serif" font-size="16" fill="white">INFO</text>
  <text x="110" y="480" font-family="Arial, sans-serif" font-size="14" fill="white">Machine ID-004: Cycle de dégivrage terminé</text>
  <text x="650" y="475" font-family="Arial, sans-serif" font-size="12" fill="white">14:05:10</text>
  
  <!-- Footer -->
  <rect x="50" y="520" width="700" height="40" fill="#6c757d" rx="8"/>
  <text x="400" y="545" text-anchor="middle" font-family="Arial, sans-serif" font-size="14" fill="white">
    Total: 127 alertes | Actives: 3 | Résolues: 124 | Dernière mise à jour: 07/07/2025 - 14:30:15
  </text>
</svg>
